<svg width="600" height="400" viewBox="0 0 600 400" fill="none" xmlns="http://www.w3.org/2000/svg">
  <rect width="600" height="400" rx="32" fill="#F9F4E4"/>
  <circle cx="448" cy="92" r="58" fill="#F3DC9E"/>
  <path d="M198 284C198 225 247 178 308 178C369 178 418 225 418 284C418 320 389 338 308 338C227 338 198 320 198 284Z" fill="#B98A4C"/>
  <path d="M309 118V272" stroke="#7A5426" stroke-width="12" stroke-linecap="round"/>
  <path d="M309 150C289 141 273 126 261 106" stroke="#7A5426" stroke-width="12" stroke-linecap="round"/>
  <path d="M309 180C290 173 274 159 263 141" stroke="#7A5426" stroke-width="12" stroke-linecap="round"/>
  <path d="M309 148C329 139 345 124 357 104" stroke="#7A5426" stroke-width="12" stroke-linecap="round"/>
  <path d="M309 178C328 170 344 157 355 139" stroke="#7A5426" stroke-width="12" stroke-linecap="round"/>
  <text x="50%" y="362" text-anchor="middle" fill="#7A5426" font-size="26" font-family="Arial, sans-serif">Healthy Grains</text>
</svg>
